<svg width="126" height="80" viewBox="0 0 126 80" fill="none" xmlns="http://www.w3.org/2000/svg">
<path fill-rule="evenodd" clip-rule="evenodd" d="M62.2894 0C69.5778 -2.98492e-07 76.7952 1.34479 83.5287 3.95801C90.2623 6.57125 96.3809 10.4018 101.535 15.2305C106.688 20.0591 110.776 25.7917 113.565 32.1006C115.289 36.0005 116.495 40.0736 117.165 44.2285C117.242 44.2598 117.321 44.2896 117.398 44.3223C123.121 46.7397 125.778 53.0705 125.742 59.2832L125.732 60.9902C125.722 62.609 125.517 64.221 125.119 65.79L124.934 66.5146C123.454 72.3491 119.498 77.523 113.647 78.9375C108.965 80.0693 104.76 79.8414 107.688 73.9199C113.29 62.5908 111.79 58.09 110.893 47.6133C110.738 45.8078 111.082 44.6803 111.753 44.0479C111.124 40.6112 110.088 37.2426 108.657 34.0059C106.134 28.3009 102.438 23.1164 97.7777 18.75C93.1175 14.3836 87.5844 10.9207 81.4955 8.55762C75.4065 6.19454 68.8801 4.97852 62.2894 4.97852C55.699 4.97856 49.1732 6.19462 43.0844 8.55762C36.9955 10.9207 31.4624 14.3837 26.8021 18.75C22.1419 23.1164 18.4454 28.3009 15.9232 34.0059C14.5702 37.0665 13.5691 40.2448 12.932 43.4873C14.2671 43.8201 15.0713 45.0161 14.849 47.6133C13.9524 58.0899 12.4527 62.5908 18.0551 73.9199C20.9832 79.8413 16.7778 80.0693 12.0961 78.9375C6.24515 77.5231 2.28833 72.3493 0.807992 66.5146L0.624398 65.79C0.22633 64.2209 0.0207088 62.609 0.0111166 60.9902L0.000374402 59.2832C-0.0340486 53.4528 2.30446 47.5179 7.32264 44.8115C7.9717 40.4547 9.20938 36.1828 11.014 32.1006C13.8032 25.7917 17.8917 20.0591 23.0453 15.2305C28.1989 10.4018 34.3176 6.57125 41.0512 3.95801C47.7845 1.34489 55.0013 4.50531e-05 62.2894 0Z" fill="white"/>
</svg>
